# xmcd CD database file
#
# Track frame offsets:
#	150
#	22970
#	48270
#
# Disc length: 920 seconds
#
# Revision: 0
# Processed by: cddbd v1.5.1PL0 Copyright (c) Steve Scherf et al.
# Submitted via: CDex 1.51
#
DISCID=18039603
DTITLE=中澤真由 - 他の誰でもないあなたは
DYEAR=2001
DGENRE=JPop
TTITLE0=他の誰でもないあなたは
TTITLE1=Step into my heart
TTITLE2=In the sunshine
EXTD=YEAR: 2001
EXTT0=
EXTT1=
EXTT2=
PLAYORDER=
